<?xml version="1.0" standalone="no"?>
<!DOCTYPE svg PUBLIC "-//W3C//DTD SVG 20010904//EN"
 "http://www.w3.org/TR/2001/REC-SVG-20010904/DTD/svg10.dtd">
<svg version="1.0" xmlns="http://www.w3.org/2000/svg"
 width="750.000000pt" height="750.000000pt" viewBox="0 0 750.000000 750.000000"
 preserveAspectRatio="xMidYMid meet">
<metadata>
Created by potrace 1.11, written by Peter Selinger 2001-2013
</metadata>
<g transform="translate(0.000000,750.000000) scale(0.100000,-0.100000)"
fill="#000000" stroke="none">
<path d="M0 3750 l0 -3750 3750 0 3750 0 0 3750 0 3750 -3750 0 -3750 0 0
-3750z m2115 2420 c383 -29 655 -106 865 -245 86 -57 213 -191 268 -281 83
-139 154 -374 184 -614 19 -153 19 -2388 0 -2540 -48 -383 -153 -633 -339
-811 -166 -158 -351 -247 -633 -303 -233 -47 -269 -48 -1087 -53 l-783 -4 0
2430 0 2431 693 0 c380 0 755 -5 832 -10z m3520 0 c383 -29 655 -106 865 -245
86 -57 213 -191 268 -281 83 -139 154 -374 184 -614 19 -153 19 -2388 0 -2540
-48 -383 -153 -633 -339 -811 -166 -158 -351 -247 -633 -303 -233 -47 -269
-48 -1087 -53 l-783 -4 0 2430 0 2431 693 0 c380 0 755 -5 832 -10z"/>
<path d="M1662 3749 l3 -1684 55 -3 c82 -5 308 16 364 33 149 46 220 137 248
315 19 125 19 2567 0 2690 -17 105 -50 177 -103 225 -81 73 -165 95 -392 102
l-177 6 2 -1684z"/>
<path d="M5182 3749 l3 -1684 55 -3 c82 -5 308 16 364 33 149 46 220 137 248
315 19 125 19 2567 0 2690 -17 105 -50 177 -103 225 -81 73 -165 95 -392 102
l-177 6 2 -1684z"/>
</g>
</svg>
